<svg id="Layer_1" data-name="Layer 1" xmlns="http://www.w3.org/2000/svg" viewBox="0 0 100 100"><defs><style>.cls-1{fill:#fff;}</style></defs><path class="cls-1" d="M55.94,29.14a30.61,30.61,0,0,0,7.11-.35l-50.9,50.9,9,9L72,37.77a30.55,30.55,0,0,0-.35,7.1C73.06,65,92.22,79.47,93.09,80.13l6.57-6.51C99.48,73.48,82.05,60.08,81,44.21c-.46-6.9,0-15.37,6-21.38l3.3-3.3L88,17.21l-4.4-4.4-2.32-2.32L78,13.79c-6,6-14.48,6.51-21.38,6.05C40.74,18.77,27.42,1.42,27.28,1.25L20.7,7.73C21.35,8.59,35.82,27.76,55.94,29.14Z"/></svg>